<?xml version="1.0" encoding="UTF-8"?>
<svg id="Layer_2" data-name="Layer 2" xmlns="http://www.w3.org/2000/svg" viewBox="0 0 114.36 121.67">
  <defs>
    <style>
      .cls-1 {
        opacity: .5;
      }

      .cls-1, .cls-2, .cls-3, .cls-4, .cls-5, .cls-6, .cls-7, .cls-8, .cls-9, .cls-10, .cls-11 {
        stroke-width: 0px;
      }

      .cls-1, .cls-5 {
        fill: #9c1c26;
      }

      .cls-2 {
        opacity: .8;
      }

      .cls-2, .cls-9 {
        fill: #fff;
      }

      .cls-3 {
        fill: #f39d1d;
      }

      .cls-4 {
        fill: #00403c;
      }

      .cls-5 {
        opacity: .2;
      }

      .cls-6 {
        fill: #1f1f66;
      }

      .cls-7 {
        fill: #3f0505;
      }

      .cls-8 {
        fill: #020616;
      }

      .cls-10 {
        fill: #f5ac6d;
      }

      .cls-11 {
        fill: #c1362f;
      }
    </style>
  </defs>
  <g id="OBJECTS">
    <g>
      <path class="cls-6" d="M113.06,56.7C115.54,24.68,71.59-2.92,38.15,10.82,15.9,12.75-.49,40.98.01,60.92c.13,5.31,1.26,10.17,3.15,14.6-.02.33.02.69.16,1.07,8.18,22.4,26.01,35.59,49.75,37.21.11,0,.23,0,.34.01,29.87,5.77,68.54-27.53,59.64-57.12ZM37.96,69.9c.03-.09.05-.18.08-.27.1.48.21.95.33,1.42-.26-.14-.52-.29-.78-.43.15-.22.28-.45.36-.72ZM33.74,26.54c.41-.43.83-.87,1.26-1.29-.39.58-.77,1.17-1.13,1.77-.2.11-.4.22-.6.33.16-.27.31-.54.47-.81ZM13.75,33.8c-.63.66-1.23,1.34-1.79,2.05,2.45-4.5,5.52-8.66,9.1-12.05-2.91,3.03-5.34,6.4-7.3,10ZM16.52,71.92c.72,3.55,1.75,7.01,3.13,10.26-1.77-2.94-2.78-6.46-3.13-10.26ZM16.54,65.22c.22-2.43.67-4.9,1.32-7.35-.18,2.2-.25,4.4-.2,6.58-.42.18-.8.44-1.12.77ZM21.84,88.56c-.2-.32-.39-.66-.59-1,.23-.35.4-.73.47-1.12.71,1.28,1.49,2.52,2.33,3.7-.75-.51-1.49-1.03-2.21-1.58ZM23.2,30.53c-.06.22-.11.44-.17.65-2.11,3.03-3.97,6.21-5.56,9.5.44-1.63.91-3.18,1.41-4.63,2.38-4.29,5.51-8.17,9.35-11.43-1.17,1.3-2.29,2.64-3.34,4.02-.76.24-1.41.84-1.69,1.88ZM26.36,44.28c-.11.18-.22.36-.34.54.61-2.22,1.3-4.37,2.05-6.41.15-.16.29-.33.44-.49-.82,2.12-1.53,4.25-2.15,6.35ZM30.67,87.02c-.24-.26-.46-.53-.69-.8.27.17.54.34.82.5-.05.1-.09.2-.14.3ZM37.99,83.6c-2.24-.81-4.31-1.97-6.1-3.45,1.34.56,2.82.81,4.34.84.34.37.68.74,1.05,1.09.48.46.97.88,1.47,1.27-.26.09-.51.17-.76.25ZM51.91,57.74c-.04.05-.07.11-.1.16-.12.09-.24.19-.36.29.01-.36.03-.7.06-1.02.23-.15.47-.29.71-.41-.11.33-.21.65-.31.98ZM90.5,41.14c.54,1.32.99,2.72,1.32,4.17-.13-.09-.26-.19-.39-.28-.34-.97-.7-1.94-1.07-2.9.06-.33.12-.66.15-.99ZM84.09,26.22c-.86-.29-1.73-.52-2.61-.67-.09-.27-.2-.54-.3-.8,1,.44,1.97.93,2.91,1.47ZM88.11,63c-.11,2.01-.74,4.09-1.73,6.07-.72.86-1.49,1.69-2.3,2.48,1.71-2.74,3.11-5.65,4.03-8.54ZM80.1,53.58s0,.04-.01.06c-.03.13-.06.26-.09.39-.01-.03-.03-.06-.05-.08.05-.12.1-.25.15-.37ZM68.53,55.27c.1.25.2.5.29.75-.11-.2-.22-.4-.34-.59.02-.05.03-.11.04-.16ZM66.61,16.92c-.21.02-.41.05-.62.07-.18-.26-.41-.49-.68-.67.45.19.88.39,1.31.6ZM67.63,39.51c-.72,0-1.45.04-2.21.09-.03-.12-.06-.25-.09-.37.76.04,1.53.14,2.29.28ZM63.67,15.72c.24.08.49.15.72.24-.26-.05-.54-.06-.84-.02,0-.08,0-.17-.02-.25.05,0,.09.02.14.03ZM63.06,30.55c-.4.27-.8.54-1.2.83-.17-.23-.34-.46-.52-.68.58-.08,1.16-.13,1.72-.15ZM57.56,107.62c-.77.04-1.54.05-2.3.06,1.23-.11,2.46-.25,3.7-.44,3.32-.5,6.73-1.32,10.15-2.43-3.43,1.58-7.22,2.6-11.56,2.81ZM76,95.82c2.53-1.2,4.97-2.58,7.28-4.14.47-.22.93-.45,1.39-.68,0,.04,0,.07,0,.11-2.79,1.86-5.74,3.52-8.79,4.98.04-.09.08-.18.12-.27ZM83.61,101.45c2.22-2.09,4.28-4.33,6.28-6.63.99-.75,1.93-1.53,2.83-2.36,1.76-.6,3.43-1.35,4.97-2.26-4.02,4.4-8.85,8.25-14.09,11.25ZM98.3,47.51c-.16-1.89-.47-3.74-.94-5.52.69,1.74,1.23,3.55,1.62,5.41-.23.01-.46.05-.69.12Z"/>
      <path class="cls-11" d="M43.53,92.9s0,16.69,13.51,21.22c10.91.02,13.99-14.45,13.96-22.12-.02-4.92-27.48.9-27.48.9Z"/>
      <path class="cls-11" d="M96,69.6s-5.26,19.84-12.45,27.14c0,0,1.54-9.27.57-14.81,4.07-8.32,2.32-11.56,3.63-11.25,1.31.3,8.25-1.08,8.25-1.08Z"/>
      <path class="cls-11" d="M70.62,22.59S71.71,1.13,57.18.03c-14.53-1.09-13.65,24.74-13.65,24.74l27.09-2.19Z"/>
      <path class="cls-8" d="M55.29,21.46s-8.15-7.57-7.17-16.99c0,0-1.01,1.18-1.88,3.45,0,0,2.27,11.71,9.05,13.54Z"/>
      <path class="cls-8" d="M63.08,2c-7.02,5.74-5.58,19.46-5.58,19.46,1.74-13.94,7.3-17.77,7.47-17.89-.57-.58-1.2-1.11-1.89-1.57Z"/>
      <path class="cls-8" d="M67.96,93.21s-1.66,8.99-4.03,13.89h-1.93s4.25-11.37,3.94-13.89c-.3-2.52,2.02,0,2.02,0Z"/>
      <path class="cls-8" d="M48.12,93.21s1.64,11.87,5.78,15.62c4.15,3.76,1.16-1.73,1.16-1.73,0,0-4.97-4.69-4.64-14.2.33-9.51-2.3.31-2.3.31Z"/>
      <path class="cls-10" d="M101.85,78.43c-.96-6.4-8.1-5.44-11.89-4.45,1.72-7.97.5-15.11.5-15.11,0-32.7-66.57-32.99-66.57,0,0,0-1.22,7.14.5,15.11-3.79-.98-10.93-1.94-11.89,4.45-1.24,8.28,8.27,10.88,15.05,4.12,3.85,6.85,11.16,12.58,24.81,12.81v9.34s.39,1.76,2.66,2.37c0,.12.84-.29.84-.18.46,0,.9-.03,1.31-.09.41.05.85.09,1.31.09,0-.1.47.16.47.04,2.27-.62,3.03-2.23,3.03-2.23v-9.34c13.65-.23,20.96-5.96,24.81-12.81,6.78,6.76,16.29,4.16,15.05-4.12Z"/>
      <path class="cls-8" d="M41.26,64.02c-1.17,0-2.22.49-2.99,1.28-1.13-.16-1.93-.94-2.39-2.01-.19-.44-.83-.53-1.2-.31-.45.26-.5.76-.31,1.2.56,1.32,1.63,2.28,2.94,2.69-.17.48-.28.99-.28,1.54,0,2.42,1.9,4.38,4.23,4.38s4.23-1.96,4.23-4.38-1.9-4.38-4.23-4.38Z"/>
      <path class="cls-7" d="M57.89,70.33c-.14,1.08-.31,2.2-.26,3.29.05,1.13,1.79.88,1.74-.24-.04-.82.14-1.91.26-2.82.15-1.12-1.59-1.35-1.74-.23h0Z"/>
      <path class="cls-8" d="M46.63,76.87c.21,4.07,6.88,4.86,9.88,5.38,3.15.54,10.02,1.5,11.4-2.49.37-1.06-1.24-1.77-1.6-.7-.71,2.07-5.36,3.15-9.7,2.54-4.21-.59-8.13-2.82-8.23-4.94-.06-1.13-1.79-.91-1.74.22h0Z"/>
      <path class="cls-1" d="M47.81,79.33s-2.61,5.23,1.18,6.39c3.79,1.17,4.91-3.93,4.91-3.93,0,0-3.47-.53-6.09-2.46Z"/>
      <path class="cls-8" d="M77.17,71.79c-1.08-.43-2.2-.66-3.34-.79.79-.65,1.7-1.16,2.68-1.46,1.08-.33.62-2.02-.46-1.69-1.98.61-3.66,1.81-4.9,3.47-.41.55.15,1.31.76,1.32,1.66.02,3.26.22,4.8.84,1.05.42,1.5-1.27.47-1.69Z"/>
      <path class="cls-5" d="M39.28,92.9c.05-.09,4-6.78-1.37-13.2-5.4-6.46-13.01-2.34-13.01-2.34.48,2.25,1.16,4.18,1.96,5.83.23-.21.46-.42.69-.65,2.37,4.22,6.06,8.01,11.72,10.35Z"/>
      <path class="cls-7" d="M24.14,72.66c.08.44.16.88.26,1.32-.28-.07-.58-.14-.9-.21.47,1.87,1.03,3.65,1.71,5.37-.35-.25-.77-.51-1.26-.73-.27-.11-.56-.22-.86-.31-.31-.07-.62-.16-.95-.17-.33-.05-.66-.03-.99-.01-.34,0-.65.1-.96.16-.31.07-.58.2-.86.29-.28.09-.5.25-.72.36-.46.23-.76.49-.99.66-.23.17-.36.27-.36.27-.07.05-.14.12-.2.18-.5.56-.45,1.43.11,1.93.56.5,1.42.45,1.93-.11l.08-.09s.08-.09.21-.23c.13-.14.31-.39.57-.59.13-.1.26-.26.42-.34.16-.09.32-.23.51-.31.19-.07.37-.2.59-.23.21-.06.42-.12.65-.13.9-.13,1.9.16,2.59.48.71.33,1.11.64,1.11.64.05.04.1.07.16.09.32.72.68,1.43,1.05,2.13.18-.17.36-.33.54-.51.43.76.91,1.51,1.43,2.24-2.29-3.83-3.84-7.73-4.84-12.13Z"/>
      <path class="cls-5" d="M74.87,93.21c-.05-.09-4-6.78,1.37-13.2,5.4-6.46,13.01-2.34,13.01-2.34-.48,2.25-1.16,4.18-1.96,5.83-.23-.21-.46-.42-.69-.65-2.37,4.22-6.06,8.01-11.72,10.35Z"/>
      <path class="cls-7" d="M97.32,81.75c.56-.5.61-1.36.11-1.93-.06-.07-.13-.13-.2-.18,0,0-.13-.1-.36-.27-.24-.17-.54-.43-.99-.66-.23-.11-.44-.27-.72-.36-.28-.09-.55-.23-.86-.29-.32-.05-.63-.16-.96-.16-.33-.02-.66-.04-.99.01-.33.02-.65.1-.96.17-.3.08-.59.19-.86.31-.49.22-.91.48-1.26.73.68-1.73,1.25-3.52,1.72-5.39-.33.07-.66.15-.96.22-.89,3.44-2.15,6.58-3.86,9.66.22-.35.44-.71.64-1.07.2.2.41.4.62.58.38-.73.75-1.46,1.08-2.21.06-.02.11-.05.16-.09,0,0,.4-.31,1.11-.64.7-.32,1.69-.6,2.59-.48.23.01.44.08.65.13.21.04.4.17.59.23.19.08.35.22.51.31.16.08.29.24.42.34.26.2.44.45.58.59.13.15.21.23.21.23l.08.09c.5.56,1.36.61,1.92.11Z"/>
      <path class="cls-3" d="M62.01,104.7c-1.75,1.95-4.21,2.09-4.73,2.1-.56,0-3.17-.16-4.92-2.1,0,0-23.31,5.02-22.06,16.96h53.77c1.25-11.94-22.06-16.96-22.06-16.96Z"/>
      <path class="cls-7" d="M46.33,56.22c0,.96-1.26,1.74-2.81,1.74s-2.81-.78-2.81-1.74,1.26-1.74,2.81-1.74,2.81.78,2.81,1.74Z"/>
      <path class="cls-7" d="M76.23,57.96c0,.96-1.26,1.74-2.81,1.74s-2.81-.78-2.81-1.74,1.26-1.74,2.81-1.74,2.81.78,2.81,1.74Z"/>
      <polygon class="cls-5" points="52.36 95.36 62 95.36 62 97.82 52.36 98.12 52.36 95.36"/>
      <path class="cls-11" d="M76.23,40.76s-7.97,19.91-28.33,18.93l.88-5.21s-13.25,9.99-14.51,18.17c0,0-2.57-2.08-2.57-5.82,0,0-5.26,21.88,6.35,32.83,0,0-19.12-7.37-22.33-32.7-3.21-25.33,5.22-47.52,43.92-47.81,13.01,0,19.72,7.01,19.72,7.01,0,0,6.64-.29,9.89,1.46,3.25,1.75,17.04,11.98,5.65,45.37l-4.88.97.82-7.12s-16.28-12.64-14.61-26.07Z"/>
      <path class="cls-8" d="M91.97,41.06c-.33-.71.52,1.46.75,2.16,5.11,16.04-1.87,23.62-1.87,23.62l-.59,5.14s11.99-8.73,1.72-30.92Z"/>
      <path class="cls-8" d="M31.7,66.84s-2.97-15.48,9.03-25.92c0,0-15.54,11.09-9.54,28.68l.52-2.76Z"/>
      <path class="cls-4" d="M30.26,120.6h53.86c0-.46-.06-.91-.14-1.35H30.4c-.08.44-.13.89-.14,1.35Z"/>
      <path class="cls-4" d="M30.82,117.71h52.73c-.17-.46-.39-.91-.63-1.35H31.46c-.25.44-.46.89-.63,1.35Z"/>
      <path class="cls-4" d="M32.51,114.8h49.35c-.38-.47-.8-.92-1.24-1.35h-46.86c-.45.43-.87.88-1.24,1.35Z"/>
      <path class="cls-4" d="M36.39,111.29h41.59c-.69-.48-1.4-.93-2.14-1.35h-37.32c-.74.42-1.45.87-2.14,1.35Z"/>
      <path class="cls-4" d="M41.89,108.23h30.6c-1.12-.51-2.23-.96-3.29-1.35h-24.01c-1.06.39-2.17.84-3.29,1.35Z"/>
      <path class="cls-2" d="M52.36,102.54s-2.21.22-2.2,2.72c0,0,.5,4.33,6.9,4.33s6.86-4.41,6.86-4.41c0,0,.12-2.18-1.93-2.64,0,0-.56,3.42-4.95,3.52-4.39.1-4.68-3.52-4.68-3.52Z"/>
      <path class="cls-9" d="M75.29,14.87c-.25-3.87-2.05-8.34-6.63-6.53-4.78,1.9-8.34,6.89-11.61,10.78-4.37-5.01-17.75-17.55-21.24-7.12-1.45,4.34-.58,13.8,4.54,15.6,5.91,2.08,12.62-2.84,17.14-6.15,3.62,2.95,8.97,9.19,13.97,7.09,4.19-1.76,4.07-10.1,3.83-13.68ZM37.5,12.47c2.01-8.23,14.82,4.03,18.39,8-3.44,2.48-7.13,4.82-11.31,5.73-7.29,1.59-8.3-8.74-7.08-13.73ZM69.4,27.21c-3.9.09-7.85-4.6-10.86-7.13,2.17-2.52,4.32-5.04,6.77-7.31,1.44-1.32,3.77-3.49,5.93-3.13,2.06.34,2.26,4.55,2.35,6,.2,2.98.12,11.47-4.2,11.57Z"/>
    </g>
  </g>
</svg>