<?xml version="1.0" encoding="UTF-8"?>
<svg id="Layer_2" data-name="Layer 2" xmlns="http://www.w3.org/2000/svg" viewBox="0 0 114.36 110.94">
  <defs>
    <style>
      .cls-1 {
        fill: #fec076;
      }

      .cls-1, .cls-2, .cls-3, .cls-4, .cls-5, .cls-6, .cls-7 {
        stroke-width: 0px;
      }

      .cls-2 {
        fill: #f39d1d;
      }

      .cls-3 {
        fill: #00403c;
      }

      .cls-4 {
        fill: #9c1c26;
        opacity: .2;
      }

      .cls-5 {
        fill: #7b2214;
      }

      .cls-6 {
        fill: #3f0505;
      }

      .cls-7 {
        fill: #020616;
      }
    </style>
  </defs>
  <g id="OBJECTS">
    <g id="_05" data-name="05">
      <path class="cls-2" d="M113.06,49.5C115.54,17.48,71.59-10.12,38.15,3.61,15.9,5.55-.49,33.78.01,53.72c.13,5.31,1.26,10.17,3.15,14.6-.02.33.02.69.16,1.07,8.18,22.4,26.01,35.59,49.75,37.21.11,0,.23,0,.34.02,29.87,5.77,68.54-27.53,59.64-57.12ZM37.96,62.7c.03-.09.05-.18.08-.27.1.48.21.95.33,1.42-.26-.14-.52-.29-.78-.43.15-.21.28-.45.36-.72ZM33.74,19.33c.42-.43.83-.87,1.26-1.29-.39.58-.77,1.17-1.13,1.77-.2.11-.4.22-.6.33.16-.27.31-.54.47-.81ZM13.75,26.6c-.63.66-1.23,1.34-1.8,2.05,2.45-4.5,5.52-8.66,9.1-12.05-2.91,3.03-5.34,6.4-7.3,10ZM16.52,64.72c.72,3.55,1.75,7.01,3.13,10.26-1.77-2.94-2.78-6.46-3.13-10.26ZM16.54,58.01c.22-2.43.67-4.9,1.32-7.35-.18,2.2-.25,4.4-.2,6.58-.42.18-.8.44-1.12.77ZM21.84,81.36c-.2-.32-.4-.66-.59-1,.23-.35.4-.73.47-1.12.71,1.28,1.48,2.52,2.33,3.7-.75-.51-1.49-1.03-2.21-1.58ZM23.2,23.33c-.06.22-.11.44-.17.65-2.11,3.03-3.97,6.21-5.56,9.5.44-1.63.91-3.18,1.41-4.63,2.38-4.29,5.51-8.17,9.35-11.43-1.17,1.3-2.29,2.64-3.34,4.03-.76.24-1.41.84-1.69,1.88ZM26.36,37.08c-.11.18-.22.36-.34.54.61-2.22,1.3-4.37,2.05-6.41.15-.16.29-.33.44-.49-.82,2.12-1.53,4.25-2.15,6.35ZM30.67,79.82c-.23-.26-.46-.53-.69-.8.27.17.54.34.82.5-.05.1-.09.2-.14.3ZM37.99,76.4c-2.24-.81-4.31-1.97-6.1-3.45,1.34.56,2.82.81,4.34.84.34.37.68.74,1.05,1.09.48.46.97.88,1.47,1.27-.26.09-.51.17-.76.25ZM51.91,50.54c-.04.05-.07.11-.1.16-.12.09-.24.19-.36.29.01-.36.03-.7.06-1.02.23-.15.47-.29.71-.41-.11.33-.21.65-.31.98ZM90.5,33.93c.54,1.32.99,2.72,1.32,4.17-.13-.09-.26-.19-.39-.28-.34-.97-.7-1.94-1.07-2.9.06-.33.12-.67.15-.99ZM84.09,19.01c-.86-.29-1.73-.52-2.61-.67-.09-.27-.2-.54-.3-.8,1,.44,1.97.93,2.91,1.47ZM88.11,55.8c-.11,2.01-.74,4.09-1.73,6.07-.72.86-1.49,1.69-2.3,2.47,1.71-2.74,3.11-5.65,4.03-8.54ZM80.1,46.38s0,.04-.01.06c-.03.13-.06.26-.09.39-.01-.03-.03-.05-.05-.08.05-.12.1-.25.15-.37ZM68.53,48.06c.1.25.2.5.29.75-.11-.2-.22-.4-.34-.59.02-.05.03-.11.04-.16ZM66.61,9.72c-.21.02-.41.05-.62.07-.18-.26-.41-.49-.68-.67.45.19.88.38,1.31.6ZM67.63,32.3c-.72,0-1.45.04-2.21.09-.03-.12-.06-.25-.09-.37.76.04,1.53.14,2.29.28ZM63.67,8.52c.24.08.49.15.72.24-.26-.05-.54-.06-.84-.02,0-.08,0-.17-.02-.25.05,0,.09.02.14.03ZM63.06,23.35c-.4.27-.8.54-1.2.83-.17-.23-.34-.46-.52-.68.58-.08,1.16-.13,1.72-.15ZM57.56,100.42c-.77.04-1.54.05-2.3.06,1.23-.11,2.46-.25,3.71-.44,3.32-.5,6.73-1.32,10.15-2.43-3.43,1.58-7.22,2.6-11.56,2.81ZM76,88.61c2.53-1.2,4.97-2.58,7.28-4.14.47-.22.93-.45,1.39-.68,0,.04,0,.08,0,.11-2.79,1.86-5.74,3.52-8.79,4.98.04-.09.08-.18.12-.27ZM83.61,94.25c2.22-2.09,4.28-4.33,6.28-6.63.99-.74,1.93-1.53,2.83-2.36,1.76-.6,3.43-1.35,4.97-2.26-4.02,4.4-8.85,8.25-14.09,11.25ZM98.3,40.31c-.16-1.89-.47-3.74-.94-5.52.69,1.74,1.23,3.55,1.62,5.41-.23.01-.46.05-.69.12Z"/>
      <path class="cls-5" d="M97.96,38.79c-1.11-24.63-32.73-28.61-39.85-28.61h-1.56c-7.12,0-37.91,4.04-39.85,28.61-3.25,41.02,24.56,51.98,24.56,51.98l1.75-3.79,6.51,5.02,1.93-2.99,2.77,2.99,2.4,1.25v.73l.7-.36.7.36v-.73l2.4-1.25,2.77-2.99,1.93,2.99,6.51-5.02,1.75,3.79s26.18-16.26,24.56-51.98Z"/>
      <path class="cls-6" d="M77.33,24.91s2.8-7.32-12.31-7.54c9.5,4.56,12.31,7.54,12.31,7.54Z"/>
      <path class="cls-6" d="M91.97,63.64s8.74-20.94-7.85-35.12c4.65,23.26,5.07,37.12,5.07,37.12l2.77-2Z"/>
      <path class="cls-6" d="M21.77,63.64s-10.09-24.07,7.22-36.36c-2.39,49.68-7.22,36.36-7.22,36.36Z"/>
      <path class="cls-1" d="M101.85,67.7c-.96-6.4-8.1-5.44-11.89-4.45,1.72-7.97.5-15.11.5-15.11,0-37.92-66.57-38.21-66.57,0,0,0-1.22,7.14.5,15.11-3.79-.98-10.93-1.94-11.89,4.45-1.24,8.28,8.27,10.88,15.05,4.12,3.85,6.85,11.16,12.58,24.81,12.82v9.34s.39,1.76,2.66,2.37c0,.12.84-.29.84-.18.46,0,.9-.03,1.31-.09.41.05.85.09,1.31.09,0-.1.48.16.48.04,2.27-.62,3.03-2.23,3.03-2.23v-9.34c13.65-.23,20.96-5.96,24.81-12.82,6.78,6.76,16.29,4.16,15.05-4.12Z"/>
      <g>
        <g>
          <path class="cls-7" d="M41.26,53.29c1.17,0,2.22.49,2.99,1.28,0,0,.54.63.96,1.57.17.48.28.99.28,1.54,0,2.42-1.9,4.38-4.23,4.38s-4.23-1.96-4.23-4.38,1.9-4.38,4.23-4.38Z"/>
          <path class="cls-7" d="M73.1,53.29c1.17,0,2.22.49,2.99,1.28,0,0,.54.63.96,1.57.18.48.28.99.28,1.54,0,2.42-1.9,4.38-4.23,4.38s-4.23-1.96-4.23-4.38,1.9-4.38,4.23-4.38Z"/>
        </g>
        <path class="cls-6" d="M56,59.71c0,1.09-.02,2.22.18,3.3.2,1.11,1.89.64,1.69-.47-.15-.81-.12-1.92-.12-2.83,0-1.13-1.75-1.13-1.75,0h0Z"/>
        <path class="cls-7" d="M46.33,68.57c.79,4,7.51,3.81,10.55,3.89,3.2.08,10.13.03,10.92-4.11.21-1.1-1.48-1.58-1.69-.46-.41,2.15-4.85,3.9-9.23,3.92-4.25.02-8.45-1.62-8.86-3.7-.22-1.11-1.91-.64-1.69.47h0Z"/>
      </g>
      <path class="cls-7" d="M75.35,48.12c0,.96-1.49,1.74-3.33,1.74s-3.33-.78-3.33-1.74,1.49-1.74,3.33-1.74,3.33.78,3.33,1.74Z"/>
      <path class="cls-4" d="M39.28,82.17c.05-.09,4-6.78-1.37-13.2-5.4-6.46-13.01-2.34-13.01-2.34.48,2.25,1.16,4.18,1.96,5.83.23-.21.46-.42.69-.65,2.37,4.22,6.06,8.01,11.72,10.36Z"/>
      <path class="cls-6" d="M24.14,61.93c.08.44.16.88.26,1.32-.28-.07-.58-.14-.89-.21.47,1.87,1.03,3.65,1.71,5.37-.35-.25-.77-.51-1.26-.73-.27-.11-.56-.22-.86-.31-.31-.08-.62-.16-.96-.17-.33-.05-.66-.03-.99,0-.34,0-.65.1-.96.16-.31.07-.58.2-.86.29-.28.09-.5.25-.72.36-.46.23-.76.49-.99.66-.23.17-.36.27-.36.27-.07.05-.14.12-.2.18-.5.56-.45,1.43.11,1.93.56.5,1.42.45,1.93-.11l.08-.09s.08-.09.21-.23c.14-.15.31-.39.58-.59.13-.1.26-.26.42-.34.16-.09.32-.23.51-.31.19-.07.37-.2.59-.23.21-.06.42-.12.65-.13.9-.13,1.9.16,2.59.47.71.33,1.11.64,1.11.64.05.04.1.08.16.09.32.72.68,1.43,1.05,2.13.18-.16.36-.33.54-.51.43.76.91,1.51,1.43,2.24-2.29-3.83-3.84-7.73-4.85-12.13Z"/>
      <path class="cls-4" d="M74.87,82.48c-.05-.09-4-6.78,1.37-13.2,5.4-6.46,13.01-2.34,13.01-2.34-.48,2.25-1.16,4.18-1.96,5.84-.23-.21-.46-.42-.69-.65-2.37,4.22-6.06,8.01-11.72,10.36Z"/>
      <path class="cls-6" d="M97.32,71.02c.56-.5.61-1.36.11-1.93-.06-.07-.13-.13-.2-.18,0,0-.13-.1-.36-.27-.23-.17-.54-.43-.99-.66-.23-.11-.44-.27-.72-.36-.28-.09-.55-.23-.86-.29-.32-.05-.63-.16-.96-.16-.33-.02-.66-.04-.99,0-.33.02-.65.1-.95.17-.3.08-.59.19-.86.31-.49.22-.91.48-1.26.73.68-1.73,1.25-3.52,1.71-5.39-.33.07-.66.15-.96.22-.89,3.44-2.15,6.58-3.86,9.66.22-.35.44-.71.64-1.07.2.2.41.4.62.58.38-.73.75-1.46,1.08-2.21.06-.02.11-.05.16-.09,0,0,.4-.31,1.11-.64.69-.32,1.69-.6,2.59-.47.23.01.44.08.65.13.21.04.4.17.59.23.19.08.35.22.51.31.16.08.29.24.42.34.26.2.44.45.58.59.13.15.21.23.21.23l.08.09c.5.56,1.36.61,1.93.11Z"/>
      <path class="cls-3" d="M62.01,93.97c-1.75,1.95-4.2,2.1-4.73,2.1-.56,0-3.17-.16-4.92-2.1,0,0-23.31,5.02-22.06,16.96h53.77c1.25-11.94-22.06-16.96-22.06-16.96Z"/>
      <path class="cls-5" d="M73.1,36.75s-6.78,13.81-18.87,16.54c1.34-2.52,1.78-4.53,1.78-4.53l-7.3,3.17.82-3.81s-3.59,5.17-5.93,5.17v-3.43l-4.98,4.4-1.58-7.87s-8.12,15.08-2.99,44.39c0,0-16.16-25.12-12.79-49.06,3.37-23.94,43.67-33.53,56.09-16.8,3.92-2.47,19.62,13.92,13.64,38.09-4.81,19.47-11.4,27.77-11.4,27.77,0,0,6.58-39.03-6.48-54.02Z"/>
      <rect class="cls-4" x="52.36" y="84.63" width="9.63" height="2.35"/>
      <path class="cls-6" d="M37.02,46.38s2.63-10.8,8.47-15.4c0,0-6.31,11.28-8.12,17.14l-.35-1.74Z"/>
      <path class="cls-7" d="M62.83,95.91s-1.94,2.63-6.28,2.3c2.55,1.09,5.62.44,6.28-2.3Z"/>
      <path class="cls-7" d="M50.08,97.31s2.31,4.67,10.54,3.88c-4.91,3.15-12.82-.54-10.54-3.88Z"/>
    </g>
  </g>
</svg>