<?xml version="1.0" encoding="UTF-8"?>
<svg id="Layer_2" data-name="Layer 2" xmlns="http://www.w3.org/2000/svg" viewBox="0 0 114.36 114.47">
  <defs>
    <style>
      .cls-1 {
        opacity: .5;
      }

      .cls-1, .cls-2, .cls-3, .cls-4, .cls-5, .cls-6, .cls-7, .cls-8 {
        stroke-width: 0px;
      }

      .cls-1, .cls-5 {
        fill: #9c1c26;
      }

      .cls-2 {
        fill: #fec076;
      }

      .cls-3 {
        fill: #f39d1d;
      }

      .cls-4 {
        fill: #00403c;
      }

      .cls-5 {
        opacity: .2;
      }

      .cls-6 {
        fill: #7b2214;
      }

      .cls-7 {
        fill: #3f0505;
      }

      .cls-8 {
        fill: #020616;
      }
    </style>
  </defs>
  <g id="OBJECTS">
    <g>
      <path class="cls-3" d="M113.06,49.5C115.54,17.48,71.59-10.12,38.15,3.61,15.9,5.55-.49,33.78.01,53.71c.13,5.31,1.26,10.17,3.15,14.6-.02.33.02.69.16,1.07,8.18,22.4,26.01,35.59,49.75,37.21.11,0,.23,0,.34.01,29.87,5.77,68.55-27.53,59.64-57.12ZM37.96,62.7c.03-.09.05-.18.08-.27.1.48.21.95.33,1.42-.26-.14-.52-.29-.78-.43.15-.22.28-.45.36-.72ZM33.74,19.33c.42-.43.83-.87,1.26-1.29-.39.58-.77,1.17-1.13,1.77-.2.11-.4.22-.6.33.16-.27.31-.54.47-.81ZM13.75,26.6c-.63.66-1.23,1.34-1.8,2.05,2.45-4.5,5.52-8.66,9.1-12.05-2.91,3.03-5.34,6.4-7.3,10ZM16.52,64.72c.72,3.55,1.75,7.01,3.13,10.26-1.77-2.94-2.78-6.46-3.13-10.26ZM16.54,58.01c.22-2.43.67-4.9,1.32-7.35-.18,2.2-.25,4.4-.2,6.58-.42.18-.8.44-1.12.77ZM21.84,81.36c-.2-.32-.4-.66-.59-1,.23-.35.4-.73.47-1.12.71,1.28,1.48,2.52,2.33,3.7-.75-.51-1.49-1.03-2.21-1.58ZM23.2,23.33c-.06.22-.11.44-.17.65-2.11,3.03-3.97,6.21-5.56,9.5.44-1.63.91-3.18,1.41-4.63,2.38-4.29,5.51-8.17,9.35-11.43-1.17,1.3-2.29,2.64-3.34,4.02-.76.24-1.41.84-1.69,1.88ZM26.36,37.08c-.11.18-.22.36-.34.54.61-2.22,1.3-4.37,2.05-6.41.15-.16.29-.33.44-.49-.82,2.12-1.53,4.25-2.15,6.35ZM30.67,79.82c-.23-.26-.46-.53-.69-.8.27.17.54.34.82.5-.05.1-.09.2-.14.3ZM37.99,76.4c-2.24-.81-4.31-1.97-6.1-3.45,1.34.56,2.82.81,4.34.84.34.37.68.74,1.05,1.09.48.46.97.88,1.47,1.27-.26.09-.51.17-.76.25ZM51.91,50.54c-.03.05-.07.11-.1.16-.12.09-.24.19-.36.29.01-.36.03-.7.06-1.02.23-.15.47-.29.71-.41-.11.33-.21.65-.31.98ZM90.5,33.93c.54,1.32.99,2.72,1.32,4.17-.13-.09-.26-.19-.39-.28-.34-.97-.7-1.94-1.07-2.9.06-.33.12-.66.15-.99ZM84.09,19.01c-.86-.29-1.73-.52-2.61-.67-.09-.27-.2-.54-.3-.8,1,.44,1.97.93,2.91,1.47ZM88.11,55.8c-.11,2.01-.74,4.09-1.73,6.07-.72.86-1.49,1.69-2.3,2.48,1.71-2.74,3.11-5.65,4.03-8.54ZM80.1,46.38s0,.04-.01.06c-.03.13-.06.26-.09.39-.02-.03-.03-.06-.05-.08.05-.12.1-.25.15-.37ZM68.53,48.06c.1.25.2.5.29.75-.11-.2-.22-.4-.34-.59.02-.05.03-.11.05-.16ZM66.61,9.71c-.21.02-.41.05-.62.07-.18-.26-.41-.49-.68-.67.45.19.88.39,1.31.6ZM67.63,32.3c-.72,0-1.45.04-2.2.09-.03-.12-.06-.25-.09-.37.76.04,1.53.14,2.29.28ZM63.67,8.52c.24.08.49.15.73.24-.26-.05-.54-.06-.84-.02,0-.08,0-.17-.02-.25.05,0,.09.02.14.03ZM63.06,23.35c-.4.27-.8.54-1.2.83-.17-.23-.34-.46-.52-.68.58-.08,1.16-.13,1.72-.15ZM57.56,100.42c-.77.04-1.54.05-2.3.06,1.23-.11,2.46-.25,3.7-.44,3.32-.5,6.73-1.32,10.15-2.43-3.43,1.58-7.22,2.6-11.56,2.81ZM76,88.61c2.53-1.2,4.97-2.58,7.28-4.14.47-.22.93-.45,1.39-.68,0,.04,0,.07,0,.11-2.79,1.86-5.74,3.52-8.79,4.98.04-.09.08-.18.12-.27ZM83.61,94.25c2.22-2.09,4.28-4.33,6.28-6.63.99-.75,1.93-1.53,2.83-2.36,1.75-.6,3.43-1.35,4.97-2.26-4.02,4.4-8.85,8.25-14.09,11.25ZM98.3,40.31c-.15-1.89-.47-3.74-.93-5.52.69,1.74,1.23,3.55,1.62,5.41-.23.01-.46.05-.69.12Z"/>
      <path class="cls-6" d="M101.35,88.74c-1.6-5.85-8.19-6.43-9.98-6.47,10.18-14.46,9.78-44.37,1.3-56.59-9.56-13.77-33.71-13.75-35.5-13.72-1.79-.02-25.95-.05-35.5,13.72-8.48,12.23-8.88,42.14,1.31,56.6-.01,0-.02,0-.02,0,0,0-8.58-.31-10.44,6.48-1.86,6.79,9.35,16.06,18.94,13.07,5.89-1.84,9.14-6.12,7.31-9.76,8.42,1.87,15.27-.38,18.41-1.78,3.08,1.37,9.7,3.56,17.88,1.9-1.7,3.62,1.53,7.82,7.36,9.64,9.59,2.99,20.8-6.28,18.94-13.07Z"/>
      <path class="cls-7" d="M83.65,79.29s4.96,3.93,4.96,7.57l-.68.64s-3.56-7.44-5.89-8.2c-2.34-.76,1.61,0,1.61,0Z"/>
      <path class="cls-7" d="M75.18,84.36s4,6.04,7.91,6.08l-1.74.47s-5.01-2.03-6.18-6.56Z"/>
      <path class="cls-7" d="M87.82,87.1c-.03-.19.24-.5.49-.55,4.31-.88,7.65,3.04,9.37,7.1-.05-.37-.1-.75-.19-1.12-.78-3.56-3.78-8.01-7.97-6.76-.54.16.08-.08.07-.64,4.75-1.42,7.75,3.15,8.75,7.16.37,1.46.43,2.91.24,4.27.02.09.12-.03.06.15-.4.43-.96.99-1.43,1.39.48-.63.65-1.05.46-1.68-.87-4.15-4.8-10.08-9.47-9.12-.02,0-.03,0-.05,0,2.09,3.29,5.21,10.12,3.41,14.08-.34.12-.69.23-1.04.32,2.2-3.71-1.21-11-3.17-14.01-.22-.33.14-.59.44-.59Z"/>
      <path class="cls-7" d="M81.94,90.67c-.61,1.02-1.08,2.03-1.41,3.03.02.05.03.1.04.16.08,2.91,1.16,6.16,3.18,8.29-.33-.07-.7-.14-1.02-.24-1.35-1.56-2.32-3.6-2.75-5.65-.14,1.47-.09,3.15.27,4.72-.24-.12-.47-.22-.7-.35-.96-3.46-.48-5.97,1.59-9.45.29-.48,1.09-1,.8-.52Z"/>
      <path class="cls-8" d="M91.37,82.27s-5.56,7.84-16.79,9.93l.06,1.32s15.46-.34,18.09-11.17l-.8-.91-.56.83Z"/>
      <path class="cls-7" d="M90.76,62.31s6.19-9.23-.61-24.9c0,0,11.92,14.68-.08,29.37l.08-3.8"/>
      <path class="cls-7" d="M24.24,65.45s-9.8-8.46-1.3-29.26c0,0-5.73,8.1-4.64,17.95,1.09,9.86,5.46,13.03,5.46,13.03l.73-.4-.26-1.32Z"/>
      <path class="cls-7" d="M30.41,79.29s-4.96,3.93-4.96,7.57l.68.64s3.56-7.44,5.9-8.2c2.34-.76-1.61,0-1.61,0Z"/>
      <path class="cls-7" d="M38.89,84.36s-4,6.04-7.91,6.08l1.74.47s5.01-2.03,6.18-6.56Z"/>
      <path class="cls-2" d="M101.95,71.23c-.96-6.4-8.1-5.44-11.89-4.45,1.72-7.97.5-15.11.5-15.11,0-32.7-66.57-32.99-66.57,0,0,0-1.22,7.14.5,15.11-3.79-.98-10.93-1.94-11.89,4.45-1.24,8.28,8.27,10.88,15.05,4.12,3.85,6.85,11.16,12.58,24.81,12.81v9.34s.39,1.76,2.66,2.37c0,.12.84-.29.84-.18.46,0,.9-.03,1.31-.09.41.05.85.09,1.31.09,0-.1.47.16.47.04,2.27-.62,3.03-2.23,3.03-2.23v-9.34c13.65-.23,20.96-5.96,24.81-12.81,6.78,6.76,16.29,4.16,15.05-4.12Z"/>
      <path class="cls-1" d="M49.58,77.78s.91,3.08,7.7,3.08,7.29-3.08,7.29-3.08c0,0-7.8,1.62-14.99,0Z"/>
      <path class="cls-1" d="M48.85,75.49s7.68-1.38,8.43.52c0,0,1.17-1.86,8.17,0,0,0-8.72,5.61-16.6-.52Z"/>
      <path class="cls-8" d="M41.36,56.82c-1.17,0-2.22.49-2.99,1.28-1.13-.16-1.93-.94-2.39-2.01-.19-.44-.83-.53-1.2-.31-.45.26-.5.76-.31,1.2.56,1.32,1.63,2.28,2.94,2.69-.17.48-.28.99-.28,1.54,0,2.42,1.9,4.38,4.23,4.38s4.23-1.96,4.23-4.38-1.9-4.38-4.23-4.38Z"/>
      <path class="cls-8" d="M73.2,56.82c1.17,0,2.22.49,2.99,1.28,1.13-.16,1.93-.94,2.39-2.01.19-.44.83-.53,1.2-.31.45.26.5.76.31,1.2-.56,1.32-1.63,2.28-2.94,2.69.17.48.28.99.28,1.54,0,2.42-1.9,4.38-4.23,4.38s-4.23-1.96-4.23-4.38,1.9-4.38,4.23-4.38Z"/>
      <path class="cls-7" d="M56.1,63.24c0,1.09-.02,2.22.18,3.3.2,1.11,1.89.64,1.69-.47-.15-.81-.11-1.92-.11-2.83,0-1.13-1.75-1.13-1.75,0h0Z"/>
      <path class="cls-8" d="M46.43,74.71c.79,4,7.51,3.81,10.55,3.89,3.2.08,10.13.03,10.92-4.11.21-1.1-1.48-1.57-1.69-.47-.41,2.15-4.85,3.9-9.23,3.92-4.25.02-8.45-1.62-8.86-3.7-.22-1.11-1.91-.64-1.69.47h0Z"/>
      <path class="cls-7" d="M45.59,49.02c0,.96-1.26,1.74-2.81,1.74s-2.81-.78-2.81-1.74,1.26-1.74,2.81-1.74,2.81.78,2.81,1.74Z"/>
      <path class="cls-7" d="M73.53,49.02c0,.96-1.26,1.74-2.81,1.74s-2.81-.78-2.81-1.74,1.26-1.74,2.81-1.74,2.81.78,2.81,1.74Z"/>
      <path class="cls-6" d="M70.46,22.39h0c-2.79-1.18-6.97-1.96-13.17-1.96-30.52,0-38.25,20.44-37.37,33.72.88,13.28,9.63,13,9.63,13,0,0-3.8-11.1,3.21-16.06,7.01-4.96,10.22-10.8,10.22-10.8-1.53,11.58,8.47,14.5,8.47,14.5l5.54-5.74.3,5.74c9.57-3.3,13.85-9.66,15.75-14.67,1.02,2.63,3.12,6.69,7.16,10.09,6.58,5.55,6.29,12.87,3.95,16.33,0,0,7.93.6,9.63-11.76,1.6-11.6-5.47-26.93-23.32-32.39Z"/>
      <path class="cls-5" d="M39.38,85.7c.05-.09,4-6.78-1.37-13.2-5.4-6.46-13.01-2.34-13.01-2.34.48,2.25,1.16,4.18,1.96,5.83.23-.21.46-.42.69-.65,2.37,4.22,6.06,8.01,11.72,10.35Z"/>
      <path class="cls-7" d="M24.24,65.45c.08.44.16.88.26,1.32-.28-.07-.58-.14-.89-.21.47,1.87,1.03,3.65,1.71,5.37-.35-.25-.77-.51-1.26-.73-.27-.11-.56-.22-.86-.31-.31-.07-.62-.16-.96-.17-.33-.05-.66-.03-.99-.01-.34,0-.65.1-.96.16-.31.07-.59.2-.86.29-.28.09-.5.25-.72.36-.46.23-.76.49-.99.66-.23.17-.36.27-.36.27-.07.05-.14.12-.2.18-.5.56-.45,1.43.11,1.93.56.5,1.42.45,1.93-.11l.08-.09s.08-.09.21-.23c.14-.14.31-.39.58-.59.13-.1.26-.26.42-.34.16-.09.32-.23.51-.31.19-.07.37-.2.59-.23.21-.06.42-.12.65-.13.9-.13,1.9.16,2.59.48.71.33,1.11.64,1.11.64.05.04.1.08.16.09.32.72.68,1.43,1.05,2.13.18-.17.36-.33.54-.51.43.76.91,1.51,1.43,2.24-2.29-3.83-3.84-7.73-4.85-12.13Z"/>
      <path class="cls-5" d="M52.46,88.16s4.5.38,9.64,0v1.17h-9.64v-1.17Z"/>
      <path class="cls-5" d="M74.98,86c-.05-.09-4-6.78,1.37-13.2,5.4-6.46,13.01-2.34,13.01-2.34-.48,2.25-1.16,4.18-1.96,5.83-.23-.21-.46-.42-.69-.65-2.37,4.22-6.06,8.01-11.72,10.35Z"/>
      <path class="cls-7" d="M97.42,74.55c.56-.5.61-1.36.11-1.93-.06-.07-.13-.13-.2-.18,0,0-.13-.1-.36-.27-.23-.17-.54-.43-.99-.66-.23-.11-.44-.27-.72-.36-.28-.09-.55-.23-.86-.29-.32-.05-.63-.16-.96-.16-.33-.02-.66-.04-.99.01-.33.02-.65.1-.96.17-.3.08-.59.19-.86.31-.5.22-.91.48-1.26.73.68-1.73,1.25-3.52,1.72-5.39-.33.07-.66.15-.96.22-.89,3.44-2.15,6.58-3.86,9.66.22-.35.44-.71.64-1.07.2.2.41.4.62.58.38-.73.75-1.46,1.08-2.21.06-.02.11-.05.16-.09,0,0,.4-.31,1.11-.64.7-.32,1.69-.6,2.59-.48.23.01.44.08.65.13.21.04.4.17.59.23.19.08.35.22.51.31.16.08.29.24.42.34.26.2.44.45.58.59.13.15.21.23.21.23l.08.09c.5.56,1.36.61,1.93.11Z"/>
      <path class="cls-7" d="M26.24,87.21c.03-.19-.24-.5-.49-.55-4.31-.88-7.65,3.04-9.37,7.1.05-.37.1-.75.19-1.12.78-3.56,3.78-8.01,7.97-6.76.54.16-.08-.08-.07-.64-4.75-1.42-7.75,3.15-8.75,7.16-.37,1.46-.43,2.91-.24,4.27-.02.09-.03.19-.05.28.4.43.84.84,1.3,1.24-.16-.54-.28-1.1-.36-1.66.87-4.15,4.8-10.08,9.47-9.12.02,0,.03,0,.05,0-2.09,3.29-5.21,10.13-3.41,14.08.34.12.69.23,1.04.32-2.2-3.71,1.21-11,3.16-14.01.22-.33-.14-.59-.44-.59Z"/>
      <path class="cls-7" d="M32.12,90.67c.61,1.02,1.08,2.03,1.41,3.03-.02.05-.03.1-.04.16-.08,2.91-1.06,6.09-3.08,8.23.33-.07.66-.16.98-.26,1.35-1.56,2.26-3.52,2.69-5.57.14,1.47.12,3.02-.24,4.6.24-.12.48-.24.71-.36.96-3.46.44-5.83-1.63-9.3-.29-.48-1.09-1-.8-.52Z"/>
      <path class="cls-8" d="M22.94,82.27s5.31,7.84,16.54,9.93l-.28,1.19s-15.23-.21-17.87-11.04l1.07-.91.54.83Z"/>
      <path class="cls-4" d="M62.12,97.5c-1.75,1.95-4.2,2.09-4.73,2.1-.56,0-3.17-.16-4.92-2.1,0,0-23.31,5.02-22.06,16.96h53.77c1.25-11.94-22.06-16.96-22.06-16.96Z"/>
      <path class="cls-8" d="M40.79,101.59c-5.61,2.75-11.01,6.96-10.38,12.87h24.83l-14.45-12.87Z"/>
      <path class="cls-8" d="M59.03,114.47h25.14c.59-5.65-4.32-9.75-9.66-12.51l-15.48,12.51Z"/>
      <path class="cls-3" d="M72.32,100.9l-15.03,13.56h3.8l15.77-11.19s-.74-2.33-4.53-2.37Z"/>
      <path class="cls-3" d="M42.26,100.9l15.03,13.56h-3.8l-15.77-11.19s.74-2.33,4.53-2.37Z"/>
    </g>
  </g>
</svg>